<svg width="1600" height="520" viewBox="0 0 1600 520" fill="none" xmlns="http://www.w3.org/2000/svg">
  <defs>
    <linearGradient id="bg" x1="120" y1="40" x2="1480" y2="520" gradientUnits="userSpaceOnUse">
      <stop stop-color="#020617"/>
      <stop offset="0.5" stop-color="#0F172A"/>
      <stop offset="1" stop-color="#1E293B"/>
    </linearGradient>
    <linearGradient id="accent" x1="300" y1="70" x2="1240" y2="430" gradientUnits="userSpaceOnUse">
      <stop stop-color="#38BDF8" stop-opacity="0.8"/>
      <stop offset="1" stop-color="#2563EB" stop-opacity="0.18"/>
    </linearGradient>
    <linearGradient id="tag" x1="180" y1="106" x2="410" y2="106" gradientUnits="userSpaceOnUse">
      <stop stop-color="#F59E0B"/>
      <stop offset="1" stop-color="#FB7185"/>
    </linearGradient>
  </defs>
  <rect width="1600" height="520" rx="44" fill="url(#bg)"/>
  <circle cx="1290" cy="84" r="190" fill="#38BDF8" fill-opacity="0.12"/>
  <circle cx="1420" cy="412" r="224" fill="#2563EB" fill-opacity="0.14"/>
  <rect x="118" y="88" width="230" height="36" rx="18" fill="url(#tag)"/>
  <text x="148" y="112" fill="#020617" font-family="Segoe UI, Arial, sans-serif" font-size="18" font-weight="800" letter-spacing="3">DN GEAR STYLE</text>
  <text x="118" y="202" fill="#F8FAFC" font-family="Segoe UI, Arial, sans-serif" font-size="74" font-weight="800">
    MODERN TACTICAL
  </text>
  <text x="118" y="286" fill="#F8FAFC" font-family="Segoe UI, Arial, sans-serif" font-size="74" font-weight="800">
    STOREFRONT
  </text>
  <text x="118" y="344" fill="#CBD5E1" font-family="Segoe UI, Arial, sans-serif" font-size="24">
    Catalog duoc bo tri lai voi hero ro rang, deal hot, danh muc de luot
  </text>
  <text x="118" y="380" fill="#CBD5E1" font-family="Segoe UI, Arial, sans-serif" font-size="24">
    va dashboard admin nam ngay trong cung mot giao dien thong nhat.
  </text>
  <g opacity="0.96">
    <rect x="960" y="108" width="420" height="280" rx="34" fill="#F8FAFC"/>
    <rect x="1002" y="146" width="240" height="32" rx="16" fill="#DBEAFE"/>
    <rect x="1002" y="198" width="330" height="122" rx="24" fill="url(#accent)"/>
    <rect x="1260" y="134" width="84" height="84" rx="24" fill="#EFF6FF"/>
    <rect x="1260" y="238" width="84" height="84" rx="24" fill="#EFF6FF"/>
    <rect x="1002" y="340" width="120" height="18" rx="9" fill="#DBEAFE"/>
    <rect x="1002" y="370" width="260" height="18" rx="9" fill="#CBD5E1"/>
    <circle cx="1130" cy="259" r="54" fill="#0F172A" fill-opacity="0.88"/>
    <path d="M1090 278L1180 241" stroke="#F8FAFC" stroke-width="14" stroke-linecap="round"/>
    <path d="M1088 253L1178 216" stroke="#38BDF8" stroke-width="10" stroke-linecap="round"/>
  </g>
</svg>
